<mxfile host="app.diagrams.net" modified="2020-10-07T09:14:41.064Z" agent="5.0 (Macintosh; Intel Mac OS X 10_15_5) AppleWebKit/537.36 (KHTML, like Gecko) Chrome/85.0.4183.121 Safari/537.36" etag="EWK0wI9sVabU3UZoOBtJ" version="13.7.7" type="github">
  <diagram id="7G5bMyklPg214r5d4M1_" name="Page-1">
    <mxGraphModel dx="946" dy="646" grid="1" gridSize="10" guides="1" tooltips="1" connect="1" arrows="1" fold="1" page="1" pageScale="1" pageWidth="827" pageHeight="1169" math="0" shadow="0">
      <root>
        <mxCell id="0" />
        <mxCell id="1" parent="0" />
        <mxCell id="YIz92cHDHYsAEAl19uF_-3" style="edgeStyle=orthogonalEdgeStyle;rounded=0;orthogonalLoop=1;jettySize=auto;html=1;exitX=0;exitY=1;exitDx=0;exitDy=0;" edge="1" parent="1" source="YIz92cHDHYsAEAl19uF_-1" target="YIz92cHDHYsAEAl19uF_-4">
          <mxGeometry relative="1" as="geometry">
            <mxPoint x="80" y="160" as="targetPoint" />
          </mxGeometry>
        </mxCell>
        <mxCell id="YIz92cHDHYsAEAl19uF_-1" value="Root Module" style="rounded=0;whiteSpace=wrap;html=1;" vertex="1" parent="1">
          <mxGeometry x="340" y="10" width="120" height="60" as="geometry" />
        </mxCell>
        <mxCell id="YIz92cHDHYsAEAl19uF_-2" value="" style="endArrow=classic;startArrow=classic;html=1;" edge="1" parent="1">
          <mxGeometry width="50" height="50" relative="1" as="geometry">
            <mxPoint x="390" y="360" as="sourcePoint" />
            <mxPoint x="440" y="310" as="targetPoint" />
          </mxGeometry>
        </mxCell>
        <mxCell id="YIz92cHDHYsAEAl19uF_-7" style="edgeStyle=orthogonalEdgeStyle;rounded=0;orthogonalLoop=1;jettySize=auto;html=1;exitX=0.5;exitY=1;exitDx=0;exitDy=0;" edge="1" parent="1" source="YIz92cHDHYsAEAl19uF_-4" target="YIz92cHDHYsAEAl19uF_-8">
          <mxGeometry relative="1" as="geometry">
            <mxPoint x="80" y="250" as="targetPoint" />
          </mxGeometry>
        </mxCell>
        <mxCell id="YIz92cHDHYsAEAl19uF_-4" value="Products Module&lt;br&gt;" style="rounded=0;whiteSpace=wrap;html=1;" vertex="1" parent="1">
          <mxGeometry x="20" y="130" width="120" height="60" as="geometry" />
        </mxCell>
        <mxCell id="YIz92cHDHYsAEAl19uF_-5" value="" style="endArrow=classic;startArrow=classic;html=1;" edge="1" parent="1">
          <mxGeometry width="50" height="50" relative="1" as="geometry">
            <mxPoint x="390" y="350" as="sourcePoint" />
            <mxPoint x="440" y="300" as="targetPoint" />
          </mxGeometry>
        </mxCell>
        <mxCell id="YIz92cHDHYsAEAl19uF_-6" value="" style="endArrow=classic;html=1;" edge="1" parent="1">
          <mxGeometry width="50" height="50" relative="1" as="geometry">
            <mxPoint x="390" y="350" as="sourcePoint" />
            <mxPoint x="440" y="300" as="targetPoint" />
          </mxGeometry>
        </mxCell>
        <mxCell id="YIz92cHDHYsAEAl19uF_-8" value="" style="rounded=0;whiteSpace=wrap;html=1;" vertex="1" parent="1">
          <mxGeometry x="20" y="220" width="120" height="60" as="geometry" />
        </mxCell>
      </root>
    </mxGraphModel>
  </diagram>
</mxfile>
